<svg width="1416" height="681" viewBox="0 0 1416 681" fill="none" xmlns="http://www.w3.org/2000/svg">
<path fill-rule="evenodd" clip-rule="evenodd" d="M399.643 42.1453C373.145 56.8009 346.233 71.6852 309.005 79.7347C271.651 87.813 224.285 90.6017 177.494 93.3566H177.494C160.582 94.3523 143.745 95.3436 127.482 96.5786C96.8334 98.9062 68.2222 102.099 44.9465 107.807C21.648 113.522 3.80819 121.732 -5.42387 134.012C-25.0117 160.067 -28.0393 194.086 -10.2071 230.757C7.63477 267.447 46.3633 306.785 110.273 343.34C173.892 379.731 256.089 399.864 342.759 418.003C357.402 421.068 372.172 424.075 387.001 427.095C459.913 441.942 534.243 457.077 601.808 480.692C660.91 501.348 710.72 528.294 759.832 554.863C766.399 558.416 772.954 561.962 779.517 565.486C835.168 595.362 891.414 623.616 960.851 640.603C1036.97 659.231 1115.89 672.325 1186.62 677.518C1257.36 682.712 1319.86 679.999 1363.15 667.045C1384.35 660.704 1396.7 651.277 1403.41 639.897C1410.12 628.508 1411.24 615.079 1409.77 600.63C1408.57 588.733 1405.63 576.2 1402.67 563.597L1402.67 563.596C1402.03 560.886 1401.4 558.172 1400.78 555.462C1397.27 540.17 1394.3 524.962 1394.99 510.975C1395.65 497.83 1399.29 485.248 1403.28 472.824C1403.86 471.023 1404.45 469.226 1405.03 467.431C1408.49 456.822 1411.93 446.287 1413.72 435.507C1415.82 422.919 1415.67 410.024 1410.71 396.363C1405.74 382.697 1395.93 368.226 1378.64 352.512C1343.47 320.555 1288.19 291.481 1225.84 263.4C1194.67 249.363 1161.75 235.58 1128.71 221.812C1126.39 220.844 1124.07 219.877 1121.75 218.909L1121.74 218.907C1091.02 206.109 1060.3 193.311 1030.89 180.322C994.941 164.441 959.273 146.895 923.562 129.174C920.239 127.525 916.916 125.875 913.592 124.224C881.191 108.133 848.729 92.0113 815.947 76.9625C743.657 43.7773 669.843 15.825 591.8 4.95241C513.671 -5.93278 468.74 7.18671 430.496 25.7875C419.901 30.9411 409.802 36.5264 399.643 42.1453ZM430.059 24.8883C468.473 6.20434 513.604 -6.95176 591.938 3.96198C670.123 14.8543 744.04 42.8528 816.364 76.0537C849.16 91.1089 881.635 107.237 914.033 123.327L914.034 123.327C917.359 124.978 920.683 126.629 924.007 128.279C959.718 146 995.368 163.536 1031.3 179.407C1060.69 192.391 1091.4 205.185 1122.13 217.983L1122.13 217.984L1122.13 217.986L1122.13 217.987L1122.14 217.988L1122.56 218.166L1122.97 218.334L1123.34 218.491C1125.26 219.29 1127.18 220.09 1129.1 220.889C1162.14 234.656 1195.07 248.445 1226.25 262.488C1288.6 290.57 1344.02 319.698 1379.31 351.772C1396.69 367.564 1406.61 382.165 1411.65 396.021C1416.69 409.882 1416.83 422.958 1414.71 435.671C1412.9 446.532 1409.44 457.148 1405.98 467.752C1405.4 469.545 1404.81 471.337 1404.24 473.13C1400.25 485.549 1396.64 498.022 1395.99 511.025C1395.3 524.858 1398.25 539.944 1401.75 555.238C1402.36 557.922 1403 560.612 1403.63 563.302L1403.64 563.346L1403.64 563.348C1406.6 575.951 1409.56 588.561 1410.77 600.529C1412.24 615.074 1411.14 628.752 1404.27 640.405C1397.4 652.067 1384.79 661.615 1363.44 668.003C1319.97 681.01 1257.33 683.712 1186.55 678.516C1115.76 673.318 1036.78 660.214 960.613 641.574C891.047 624.556 834.708 596.25 779.044 566.367C772.478 562.841 765.921 559.294 759.353 555.741C710.236 529.17 660.499 502.264 601.478 481.636C533.983 458.046 459.734 442.926 386.822 428.079L386.815 428.078L386.812 428.077C371.981 425.057 357.206 422.048 342.554 418.982C255.896 400.845 173.551 380.687 109.776 344.208C45.7675 307.596 6.85489 268.13 -11.1064 231.194C-29.0771 194.239 -26.0696 159.81 -6.22318 133.411L-5.93004 133.632L-6.22317 133.411C3.23005 120.837 21.3708 112.56 44.7083 106.836C68.0685 101.107 96.7486 97.9098 127.407 95.5815C143.715 94.3429 160.583 93.3498 177.513 92.353H177.513L177.513 92.353L177.513 92.3529C224.279 89.5995 271.522 86.8179 308.794 78.7573C345.868 70.7411 372.592 55.9599 399.049 41.327L399.05 41.3268L399.05 41.3264L399.051 41.3262L399.051 41.3258C409.235 35.6932 419.379 30.0826 430.059 24.8883ZM435.999 75.5385C412.429 88.5577 388.482 101.785 355.362 108.938C322.134 116.114 280 118.591 238.381 121.038L238.38 121.038L238.379 121.038L238.379 121.038C223.338 121.922 208.364 122.803 193.903 123.9C166.643 125.967 141.199 128.802 120.502 133.872C99.7816 138.947 83.9311 146.237 75.7323 157.128C58.3247 180.252 55.6305 210.446 71.4831 243.002C87.3453 275.577 121.781 310.511 178.619 342.976C235.196 375.292 308.296 393.173 385.383 409.285C398.398 412.006 411.527 414.676 424.708 417.356L424.712 417.357C489.569 430.546 555.692 443.993 615.797 464.975C668.374 483.324 712.684 507.262 756.371 530.864L756.371 530.864C762.207 534.017 768.032 537.164 773.864 540.29C823.36 566.827 873.381 591.921 935.129 607.011C1002.83 623.553 1073.03 635.182 1135.94 639.795C1198.86 644.409 1254.44 642 1292.93 630.501C1311.77 624.869 1322.75 616.5 1328.7 606.408C1334.67 596.306 1335.66 584.392 1334.36 571.563C1333.28 561.003 1330.67 549.879 1328.04 538.689L1328.04 538.687L1328.04 538.683C1327.47 536.274 1326.9 533.861 1326.35 531.45C1323.24 517.867 1320.59 504.352 1321.2 491.919C1321.79 480.235 1325.03 469.053 1328.58 458.017C1328.84 457.2 1329.11 456.384 1329.37 455.569L1329.73 454.479L1330.14 453.222L1330.14 453.219L1330.14 453.218L1330.14 453.216L1330.14 453.215C1333.22 443.796 1336.27 434.446 1337.86 424.878C1339.73 413.704 1339.6 402.26 1335.19 390.137C1330.78 378.01 1322.07 365.163 1306.69 351.211C1275.42 322.832 1226.25 297.01 1170.8 272.068C1143.07 259.6 1113.79 247.358 1084.41 235.128C1082.35 234.271 1080.29 233.413 1078.23 232.556C1050.9 221.186 1023.56 209.815 997.404 198.276C965.424 184.168 933.698 168.583 901.935 152.843C898.977 151.377 896.018 149.909 893.058 148.442C864.242 134.15 835.373 119.832 806.219 106.467C741.923 76.9918 676.277 52.1662 606.871 42.51C537.392 32.8432 497.44 44.4944 463.434 61.0122C454.014 65.5879 445.034 70.548 435.999 75.5385ZM462.997 60.1127C497.174 43.512 537.325 31.8243 607.009 41.5195C676.557 51.1955 742.306 76.0672 806.635 105.558C835.804 118.93 864.688 133.255 893.502 147.546L897.421 149.489C899.074 150.309 900.727 151.128 902.379 151.947C934.143 167.687 965.85 183.263 997.808 197.361C1023.95 208.895 1051.28 220.262 1078.61 231.632L1078.62 231.635C1080.67 232.492 1082.73 233.349 1084.79 234.205C1114.18 246.434 1143.47 258.681 1171.21 271.156C1226.66 296.099 1275.96 321.975 1307.37 350.47L1307.03 350.841L1307.37 350.47C1322.82 364.501 1331.65 377.477 1336.13 389.796C1340.61 402.118 1340.73 413.743 1338.85 425.043C1337.24 434.693 1334.16 444.125 1331.09 453.543C1330.86 454.234 1330.64 454.926 1330.41 455.617L1330.09 456.604C1329.9 457.177 1329.72 457.75 1329.53 458.324C1325.98 469.354 1322.78 480.427 1322.2 491.969C1321.59 504.248 1324.21 517.641 1327.32 531.226C1327.87 533.623 1328.44 536.027 1329 538.431L1329.01 538.434C1331.64 549.627 1334.27 560.83 1335.35 571.462C1336.66 584.386 1335.68 596.55 1329.57 606.916C1323.44 617.291 1312.22 625.78 1293.21 631.459C1254.55 643.011 1198.82 645.409 1135.86 640.792C1072.89 636.175 1002.64 624.536 934.892 607.982C873.014 592.861 822.9 567.715 773.391 541.172C767.556 538.043 761.73 534.896 755.894 531.743C712.203 508.139 667.964 484.24 615.467 465.919C555.432 444.962 489.39 431.531 424.534 418.341L424.531 418.341L424.527 418.34L424.514 418.337L424.495 418.333C411.32 415.654 398.195 412.985 385.178 410.264C308.103 394.154 234.855 376.249 178.123 343.844C121.186 311.322 86.5658 276.261 70.584 243.44C54.5925 210.599 57.2667 179.995 74.9334 156.526C83.3534 145.341 99.5048 137.986 120.264 132.901C141.046 127.81 166.558 124.971 193.827 122.903C208.335 121.802 223.339 120.92 238.398 120.034L238.4 120.034C279.993 117.589 322.005 115.118 355.151 107.96C388.117 100.84 411.877 87.7164 435.406 74.7198C444.467 69.7152 453.493 64.7294 462.997 60.1127ZM403.876 138.789C432.681 132.569 453.513 121.065 474.008 109.748L474.009 109.747L474.01 109.746C481.863 105.41 489.667 101.101 497.851 97.1265C527.405 82.7746 562.127 72.6497 622.521 81.0503C682.855 89.4423 739.923 111.018 795.82 136.637C821.17 148.256 846.273 160.703 871.33 173.127L871.33 173.127L871.333 173.129C873.9 174.402 876.467 175.674 879.033 176.946C906.648 190.627 934.23 204.175 962.034 216.437C984.77 226.463 1008.53 236.343 1032.28 246.222C1034.08 246.971 1035.88 247.721 1037.68 248.471C1063.23 259.1 1088.69 269.741 1112.79 280.578C1161.01 302.258 1203.74 324.699 1230.93 349.358C1244.29 361.481 1251.86 372.638 1255.69 383.167C1259.52 393.69 1259.63 403.625 1258.01 413.329C1256.63 421.642 1253.97 429.766 1251.3 437.955C1251.02 438.826 1250.73 439.698 1250.45 440.571C1250.28 441.088 1250.11 441.605 1249.95 442.123C1246.86 451.715 1244.04 461.442 1243.53 471.606C1242.99 482.423 1245.29 494.179 1248 505.985C1248.48 508.074 1248.97 510.165 1249.46 512.252L1249.47 512.278L1249.47 512.282C1251.75 522.008 1254.03 531.671 1254.96 540.845C1256.09 551.99 1255.22 562.33 1250.05 571.093C1244.88 579.847 1235.36 587.113 1218.98 592.005C1185.53 601.999 1137.22 604.094 1082.52 600.083C1027.83 596.074 966.797 585.965 907.942 571.585C854.265 558.471 810.781 536.663 767.749 513.599C762.679 510.881 757.615 508.147 752.542 505.407C714.559 484.893 676.028 464.083 630.311 448.133C578.054 429.898 520.565 418.209 464.182 406.745L464.181 406.745L464.174 406.743C452.711 404.413 441.293 402.091 429.975 399.726C362.953 385.72 299.408 370.178 250.229 342.095C200.819 313.88 170.891 283.523 157.108 255.224C143.334 226.945 145.678 200.727 160.796 180.651C167.91 171.204 181.672 164.872 199.684 160.461C217.674 156.056 239.791 153.592 263.49 151.795C276.06 150.842 289.077 150.077 302.153 149.308C338.339 147.181 374.981 145.027 403.876 138.789ZM622.658 80.0598C562.06 71.6308 527.139 81.7921 497.414 96.2269C489.145 100.242 481.294 104.578 473.415 108.929C452.961 120.224 432.316 131.625 403.664 137.811C374.852 144.032 338.332 146.179 302.172 148.305L302.168 148.305L302.166 148.305L302.165 148.305C289.074 149.075 276.029 149.841 263.415 150.798C239.706 152.596 217.52 155.064 199.446 159.49C181.395 163.91 167.333 170.308 159.997 180.049C144.62 200.47 142.296 227.098 156.209 255.662C170.112 284.207 200.224 314.691 249.733 342.963C299.066 371.135 362.76 386.701 429.77 400.705C441.103 403.073 452.53 405.396 463.999 407.729L464.002 407.729C520.385 419.193 577.794 430.866 629.981 449.077C675.618 464.999 714.076 485.769 752.063 506.284L752.063 506.285L752.087 506.298C757.153 509.034 762.211 511.765 767.276 514.48C810.322 537.551 853.899 559.411 907.704 572.556C966.606 586.948 1027.69 597.066 1082.44 601.081C1137.19 605.094 1185.64 603.01 1219.27 592.963C1235.8 588.024 1245.58 580.638 1250.91 571.601C1256.24 562.574 1257.09 551.985 1255.95 540.744C1255.01 531.498 1252.72 521.755 1250.43 512.026L1250.43 512.008C1249.94 509.923 1249.45 507.84 1248.97 505.762C1246.27 493.953 1243.99 482.319 1244.53 471.656C1245.03 461.634 1247.81 452.016 1250.9 442.429C1251.01 442.079 1251.12 441.728 1251.24 441.377C1251.4 440.885 1251.56 440.393 1251.72 439.901C1251.89 439.359 1252.07 438.817 1252.25 438.275L1252.25 438.273C1254.92 430.089 1257.6 421.886 1259 413.493C1260.64 403.664 1260.53 393.548 1256.63 382.825C1252.73 372.105 1245.05 360.818 1231.6 348.618C1204.29 323.841 1161.42 301.347 1113.2 279.666C1089.09 268.823 1063.62 258.177 1038.07 247.547C1036.27 246.798 1034.47 246.049 1032.67 245.3L1032.65 245.294C1008.9 235.417 985.159 225.542 962.437 215.522C934.656 203.27 907.092 189.732 879.477 176.05C876.911 174.778 874.343 173.505 871.776 172.232L871.775 172.232C846.719 159.808 821.602 147.354 796.237 135.728C740.306 110.093 683.135 88.4716 622.658 80.0598ZM509.536 142.321C491.895 152.066 473.954 161.978 449.152 167.335C424.28 172.707 392.738 174.562 361.594 176.394C350.342 177.055 339.141 177.714 328.326 178.534C307.93 180.081 288.901 182.203 273.424 185.994C257.926 189.791 246.103 195.237 239.996 203.35C227.005 220.611 224.987 243.156 236.832 267.483C248.686 291.831 274.43 317.957 316.946 342.244C359.259 366.416 413.938 379.795 471.619 391.852C481.363 393.889 491.192 395.888 501.061 397.895C549.583 407.764 599.062 417.827 644.036 433.526C683.386 447.262 716.55 465.182 749.236 482.844L749.237 482.845L749.238 482.845L749.245 482.849L749.251 482.852C753.614 485.21 757.968 487.562 762.327 489.9C799.36 509.758 836.774 528.531 882.959 539.819C933.608 552.196 986.127 560.898 1033.19 564.35C1080.27 567.803 1121.84 565.999 1150.62 557.399C1164.7 553.191 1172.88 546.944 1177.32 539.426C1181.76 531.9 1182.5 523.016 1181.53 513.427C1180.73 505.531 1178.77 497.214 1176.8 488.838C1176.38 487.034 1175.96 485.228 1175.54 483.423C1173.21 473.258 1171.22 463.128 1171.69 453.803C1172.12 445.043 1174.56 436.662 1177.21 428.403C1177.6 427.204 1177.99 426.008 1178.38 424.813L1178.38 424.809C1180.68 417.759 1182.96 410.772 1184.15 403.622C1185.54 395.276 1185.45 386.735 1182.16 377.689C1178.86 368.637 1172.36 359.04 1160.86 348.609C1137.48 327.386 1100.71 308.07 1059.22 289.404C1038.47 280.075 1016.57 270.914 994.579 261.762L992.814 261.028L989.943 259.833L989.942 259.832L989.938 259.831C969.493 251.324 949.044 242.816 929.474 234.182C905.542 223.624 881.802 211.96 858.036 200.181C855.824 199.084 853.611 197.987 851.398 196.889L851.396 196.888C829.834 186.193 808.234 175.479 786.422 165.477C738.318 143.422 689.211 124.849 637.294 117.625C585.334 110.395 555.466 119.11 530.044 131.46C523.006 134.879 516.293 138.588 509.536 142.321ZM529.607 130.561C555.2 118.127 585.267 109.376 637.432 116.635C689.491 123.879 738.7 142.497 786.838 164.568C808.665 174.576 830.277 185.296 851.835 195.99L851.84 195.992L851.933 196.038C854.116 197.121 856.298 198.203 858.48 199.285C882.247 211.064 905.969 222.719 929.877 233.267C949.439 241.897 969.879 250.402 990.327 258.91L994.964 260.839C1016.95 269.99 1038.87 279.156 1059.63 288.492C1101.12 307.158 1138.02 326.529 1161.54 347.868C1173.11 358.377 1179.73 368.104 1183.1 377.347C1186.46 386.594 1186.55 395.316 1185.14 403.787C1183.93 411.017 1181.63 418.084 1179.33 425.13L1179.33 425.131L1179.32 425.135L1179.29 425.245C1179.15 425.686 1179 426.126 1178.86 426.567C1178.63 427.281 1178.39 427.995 1178.16 428.709C1175.51 436.963 1173.11 445.235 1172.69 453.853C1172.23 463.024 1174.19 473.032 1176.52 483.199C1176.92 484.98 1177.34 486.765 1177.76 488.551L1177.77 488.587L1177.77 488.59C1179.74 496.966 1181.72 505.36 1182.52 513.326C1183.51 523.01 1182.78 532.144 1178.18 539.935C1173.58 547.734 1165.15 554.102 1150.91 558.357C1121.95 567.01 1080.23 568.803 1033.12 565.347C985.991 561.89 933.417 553.179 882.721 540.791C836.408 529.471 798.901 510.647 761.855 490.781C757.496 488.444 753.143 486.092 748.784 483.737L748.772 483.73L748.761 483.724L748.76 483.724C716.069 466.059 682.977 448.179 643.706 434.47C598.803 418.796 549.405 408.749 500.883 398.88C491.009 396.871 481.171 394.871 471.414 392.831C413.745 380.776 358.918 367.373 316.45 343.112C273.834 318.769 247.907 292.514 235.933 267.921C223.95 243.309 225.947 220.354 239.197 202.749C245.525 194.342 257.649 188.829 273.187 185.023C288.747 181.211 307.845 179.085 328.25 177.537C339.112 176.713 350.343 176.053 361.614 175.39H361.614C392.732 173.56 424.151 171.712 448.941 166.357C473.589 161.033 491.343 151.225 508.943 141.502C515.726 137.755 522.485 134.021 529.607 130.561ZM496.05 195.533C516.692 191.074 531.63 182.82 546.307 174.711L546.309 174.71C551.927 171.606 557.506 168.524 563.351 165.684C584.482 155.417 609.308 148.171 652.51 154.183C695.679 160.191 736.516 175.636 776.526 193.982C794.671 202.303 812.64 211.216 830.577 220.115L830.581 220.117L833.485 221.558C834.354 221.988 835.222 222.419 836.09 222.849C855.858 232.648 875.605 242.351 895.51 251.135C911.791 258.318 928.8 265.396 945.806 272.472L949.669 274.08C967.959 281.693 986.18 289.313 1003.43 297.074C1037.95 312.601 1068.52 328.665 1087.95 346.309C1097.5 354.98 1102.91 362.953 1105.64 370.467C1108.37 377.975 1108.45 385.065 1107.3 391.998C1106.3 397.941 1104.41 403.749 1102.5 409.616L1102.46 409.736C1102.15 410.689 1101.83 411.643 1101.53 412.6C1099.32 419.471 1097.29 426.452 1096.93 433.752C1096.54 441.522 1098.2 449.959 1100.13 458.414C1100.48 459.917 1100.83 461.42 1101.18 462.921C1102.82 469.888 1104.44 476.8 1105.11 483.361C1105.92 491.329 1105.3 498.698 1101.62 504.937C1097.94 511.166 1091.16 516.352 1079.46 519.85C1055.54 526.999 1020.98 528.499 981.826 525.628C942.687 522.757 899.007 515.52 856.881 505.226C818.476 495.837 787.363 480.225 756.561 463.708C752.943 461.767 749.328 459.814 745.707 457.857L745.673 457.839C718.486 443.148 690.896 428.239 658.16 416.81C620.742 403.747 579.579 395.374 539.219 387.164L539.201 387.16C531 385.492 522.832 383.831 514.736 382.138C466.758 372.107 421.292 360.98 386.108 340.88C350.753 320.68 329.356 298.957 319.506 278.724C309.666 258.511 311.345 239.792 322.13 225.463C327.19 218.738 336.999 214.213 349.887 211.056C362.752 207.904 378.575 206.139 395.538 204.852C404.529 204.17 413.841 203.623 423.197 203.072H423.197C449.106 201.548 475.354 200.004 496.05 195.533ZM652.647 153.193C609.242 147.152 584.216 154.434 562.914 164.784C556.983 167.666 551.357 170.775 545.714 173.893L545.713 173.893C531.078 181.979 516.327 190.129 495.839 194.555C475.225 199.009 449.099 200.546 423.217 202.069H423.217C413.842 202.62 404.5 203.17 395.463 203.855C378.49 205.143 362.599 206.912 349.649 210.084C336.722 213.252 326.613 217.843 321.331 224.861L321.73 225.162L321.331 224.861C310.287 239.535 308.628 258.664 318.607 279.162C328.576 299.64 350.158 321.491 385.612 341.748C420.95 361.937 466.565 373.089 514.531 383.117C522.646 384.813 530.828 386.478 539.04 388.148L539.041 388.148C579.4 396.358 620.483 404.715 657.83 417.754C690.485 429.154 718.003 444.024 745.194 458.717L745.196 458.718L745.234 458.739C748.854 460.695 752.469 462.648 756.088 464.589C786.903 481.114 818.109 496.777 856.643 506.197C898.816 516.503 942.551 523.749 981.753 526.625C1020.94 529.499 1055.65 528.009 1079.74 520.808C1091.6 517.264 1098.63 511.956 1102.48 505.445C1106.31 498.943 1106.92 491.324 1106.1 483.261C1105.43 476.628 1103.79 469.638 1102.15 462.669C1101.8 461.174 1101.45 459.68 1101.11 458.191C1099.17 449.733 1097.55 441.418 1097.93 433.802C1098.28 426.644 1100.27 419.772 1102.48 412.906C1102.8 411.917 1103.12 410.928 1103.44 409.938L1103.44 409.934C1105.36 404.072 1107.28 398.185 1108.28 392.162C1109.46 385.104 1109.38 377.834 1106.58 370.125C1103.78 362.42 1098.26 354.318 1088.63 345.569C1069.06 327.808 1038.36 311.69 1003.84 296.162C986.576 288.395 968.342 280.769 950.053 273.157L946.195 271.551C929.186 264.474 912.185 257.399 895.914 250.22C876.031 241.446 856.302 231.752 836.534 221.953C834.699 221.043 832.863 220.133 831.026 219.222C813.089 210.323 795.105 201.401 776.943 193.073C736.899 174.712 695.959 159.22 652.647 153.193Z" fill="url(#paint0_linear_2_28)"/>
<defs>
<linearGradient id="paint0_linear_2_28" x1="696.506" y1="0.000218096" x2="696.506" y2="681" gradientUnits="userSpaceOnUse">
<stop stop-color="#E1E1E1"/>
<stop offset="1" stop-color="#E1E1E1" stop-opacity="0"/>
</linearGradient>
</defs>
</svg>
